<svg width="36" height="37" viewBox="0 0 36 37" fill="none" xmlns="http://www.w3.org/2000/svg">
<path d="M17.8332 0.680908C7.99189 0.680908 0.0141602 8.65864 0.0141602 18.4999C0.0141602 28.3412 7.99189 36.319 17.8332 36.319C27.6745 36.319 35.6522 28.3412 35.6522 18.4999C35.6522 8.65864 27.6745 0.680908 17.8332 0.680908ZM13.4712 25.8856H9.86289V14.2735H13.4712V25.8856ZM11.6448 12.848C10.5051 12.848 9.76822 12.0405 9.76822 11.0419C9.76822 10.0229 10.5274 9.23961 11.6912 9.23961C12.855 9.23961 13.5678 10.0229 13.59 11.0419C13.59 12.0405 12.855 12.848 11.6448 12.848ZM26.6499 25.8856H23.0415V19.4503C23.0415 17.9524 22.5181 16.9352 21.2132 16.9352C20.2165 16.9352 19.6244 17.6238 19.3627 18.2865C19.2661 18.5222 19.242 18.8563 19.242 19.1886V25.8837H15.6318V17.9765C15.6318 16.5269 15.5854 15.3148 15.5371 14.2716H18.6722L18.8374 15.8846H18.9098C19.3849 15.1273 20.5487 14.0099 22.4958 14.0099C24.8699 14.0099 26.6499 15.6006 26.6499 19.0197V25.8856Z" fill="white"/>
</svg>
