<svg width="34" height="35" viewBox="0 0 34 35" fill="none" xmlns="http://www.w3.org/2000/svg">
<path d="M22.5417 17.5C22.5417 18.5631 22.2265 19.6023 21.6359 20.4862C21.0453 21.3701 20.2058 22.059 19.2237 22.4659C18.2415 22.8727 17.1608 22.9791 16.1181 22.7717C15.0755 22.5643 14.1178 22.0524 13.366 21.3007C12.6143 20.549 12.1024 19.5913 11.895 18.5486C11.6876 17.506 11.7941 16.4252 12.2009 15.4431C12.6077 14.4609 13.2966 13.6215 14.1806 13.0309C15.0645 12.4402 16.1037 12.125 17.1667 12.125C18.5909 12.1294 19.9555 12.6971 20.9626 13.7042C21.9696 14.7112 22.5373 16.0758 22.5417 17.5ZM33.9636 10.1094V24.8906C33.9636 27.3853 32.9726 29.7778 31.2086 31.5418C29.4446 33.3059 27.0521 34.2969 24.5574 34.2969H9.77612C7.28143 34.2969 4.88891 33.3059 3.1249 31.5418C1.36089 29.7778 0.369873 27.3853 0.369873 24.8906V10.1094C0.369873 7.61468 1.36089 5.22217 3.1249 3.45815C4.88891 1.69414 7.28143 0.703125 9.77612 0.703125H24.5574C27.0521 0.703125 29.4446 1.69414 31.2086 3.45815C32.9726 5.22217 33.9636 7.61468 33.9636 10.1094ZM25.2292 17.5C25.2292 15.9054 24.7564 14.3466 23.8705 13.0207C22.9846 11.6948 21.7254 10.6615 20.2521 10.0512C18.7789 9.44099 17.1578 9.28133 15.5938 9.59242C14.0299 9.90351 12.5933 10.6714 11.4657 11.799C10.3381 12.9265 9.57026 14.3631 9.25917 15.9271C8.94807 17.4911 9.10774 19.1122 9.71797 20.5854C10.3282 22.0586 11.3616 23.3178 12.6875 24.2037C14.0133 25.0896 15.5721 25.5625 17.1667 25.5625C19.3051 25.5625 21.3558 24.7131 22.8678 23.201C24.3798 21.689 25.2292 19.6383 25.2292 17.5ZM27.9167 8.76562C27.9167 8.36697 27.7985 7.97727 27.5771 7.6458C27.3556 7.31434 27.0408 7.05599 26.6725 6.90343C26.3042 6.75087 25.8989 6.71096 25.5079 6.78873C25.1169 6.8665 24.7578 7.05847 24.4759 7.34036C24.194 7.62225 24.002 7.9814 23.9242 8.3724C23.8465 8.76339 23.8864 9.16866 24.0389 9.53697C24.1915 9.90528 24.4498 10.2201 24.7813 10.4416C25.1128 10.663 25.5025 10.7812 25.9011 10.7812C26.4357 10.7812 26.9484 10.5689 27.3264 10.1909C27.7044 9.81288 27.9167 9.3002 27.9167 8.76562Z" fill="white"/>
</svg>
